<svg version="1.2" xmlns="http://www.w3.org/2000/svg" viewBox="0 0 579 434" width="579" height="434">
	<style>
		.s0 { fill: #ffffff } 
		.s1 { fill: #c3c3c3 } 
		.s2 { fill: #fdfdfd } 
		.s3 { fill: #a0b0ac } 
		.s4 { fill: #504d49 } 
		.s5 { fill: #878886 } 
		.s6 { opacity: 1;fill: #e7e8e6 } 
		.s7 { fill: #0a0d0c } 
	</style>
	<g id="Background">
		<path id="Path 0" class="s0" d="m0 217v217h579v-434h-579z"/>
		<path id="Path 1" class="s1" d="m368.98 312.25c-0.01 0.69 0.65 2.15 1.47 3.25 1.42 1.91 1.49 1.86 1.52-1.25 0.02-2.24-0.44-3.25-1.47-3.25-0.83 0-1.51 0.56-1.52 1.25z"/>
		<path id="Path 2" class="s2" d="m410.75 302.52c-2.61 1.92-5.88 5.17-7.25 7.23-1.38 2.06-2.51 4.31-2.5 5 0 0.7 1.21 1.24 2.75 1.23 1.51-0.01 3.65 0.65 4.75 1.47 1.1 0.82 2.56 1.5 3.25 1.52 0.75 0.02 1.24-1.26 1.23-3.22-0.02-1.79 1.11-6.29 2.5-10 1.75-4.7 2.14-6.74 1.27-6.73-0.69 0.02-3.39 1.59-6 3.5z"/>
		<path id="Path 3" class="s2" d="m481 301.05c-2.48 1.6-8.21 4.5-12.75 6.43-4.54 1.94-8.93 3.52-9.75 3.52-1.2 0-1.27-0.35-0.35-1.75 0.63-0.96 0.86-2.54 0.5-3.5-0.59-1.58-1.16-1.46-5.9 1.3-2.89 1.67-7.18 4.03-9.54 5.25-2.62 1.34-4.17 2.78-3.99 3.7 0.25 1.25 3.09 1.55 16.79 1.79l16.49 0.28c14.09-13.1 15.6-15.06 15.34-16.99-0.19-1.34-0.79-2.54-1.34-2.68-0.55-0.15-3.02 1.05-5.5 2.65z"/>
		<path id="Path 4" class="s2" d="m389.23 299.25c-0.55 0.69-2.17 3.61-3.61 6.5-1.44 2.89-2.96 7.28-3.37 9.77-0.61 3.68-0.47 4.51 0.75 4.5 0.82 0 4.2-0.48 7.5-1.06 3.3-0.58 6.67-1.26 7.5-1.51 1.31-0.4 1.29-0.69-0.13-2.21-0.9-0.96-2.31-3.09-3.15-4.74-0.83-1.65-1.77-5.14-2.08-7.75-0.31-2.61-0.98-4.75-1.49-4.75-0.51 0-1.37 0.56-1.92 1.25z"/>
		<path id="Path 5" class="s2" d="m343.61 293.25c-0.32 1.24-0.59 2.59-0.6 3 0 0.41 1 0.74 2.24 0.72 1.24-0.01 3.21 1 4.37 2.25 1.17 1.26 2.56 3.63 3.08 5.28 0.56 1.76 1.75 3.11 2.88 3.28 1.77 0.25 1.89-0.3 1.59-7-0.18-4-0.51-7.84-0.75-8.53-0.27-0.81-2.49-1.25-6.32-1.25-5.29 0-5.97 0.24-6.49 2.25z"/>
		<path id="Path 6" class="s1" d="m356.06 273.5c-2.92 2.75-6.59 7.25-8.17 10-1.58 2.75-2.88 5.56-2.88 6.25q0 1.25 5.88 1.5l5.9 0.25c0.94-8.14 2.13-12.86 3.25-15.75 1.12-2.89 1.88-5.7 1.69-6.25-0.2-0.55-2.75 1.25-5.67 4z"/>
		<path id="Path 7" class="s2" d="m67.28 262.75c-0.76 2.34-0.87 4.13-0.29 4.75 0.52 0.55 1.63 0.66 2.47 0.25 1.1-0.54 1.39-1.68 1.01-4-0.3-1.79-0.86-3.59-1.25-4-0.4-0.41-1.27 0.94-1.94 3z"/>
		<path id="Path 8" class="s3" d="m87 259c0 0.55 1.8 1 4 1 2.2 0 4-0.45 4-1 0-0.55-1.8-1-4-1-2.2 0-4 0.45-4 1z"/>
		<path id="Path 9" class="s2" d="m79.92 256.75c-0.57 1.51-1.23 3.76-1.48 5-0.34 1.73 0.02 2.25 1.56 2.25 1.73 0 2-0.67 2-5 0-2.75-0.23-5-0.52-5-0.29 0-0.99 1.24-1.56 2.75z"/>
		<path id="Path 10" class="s3" d="m425 254.46c-3.02 0.68-8.88 1.78-13 2.44-4.13 0.66-10.2 2.51-13.5 4.1-3.44 1.66-8.48 5.37-11.82 8.7-3.67 3.66-7.21 8.57-9.59 13.3-2.2 4.36-4.29 10.43-5 14.5-0.67 3.85-1.07 8.57-0.88 10.5 0.32 3.23 0.45 3.04 1.72-2.5 0.76-3.3 2.87-8.93 4.7-12.5 1.83-3.57 5.06-8.52 7.18-11 2.12-2.48 6.29-6.16 9.27-8.18 3.28-2.24 10.15-5.24 17.42-7.61 6.6-2.16 13.8-4.84 16-5.95 2.2-1.11 4.56-2.74 5.25-3.64 0.69-0.89 1.02-2.07 0.75-2.62-0.27-0.55-1.06-0.95-1.75-0.89-0.69 0.06-3.73 0.67-6.75 1.35z"/>
		<path id="Path 11" class="s2" d="m87 255.5c0 2.25 0.4 2.5 4 2.5 2.2 0 4 0.45 4 1 0 0.55-1.8 1-4 1-3.6 0-4 0.25-4 2.5 0 1.94 0.62 2.62 2.75 3.02 1.51 0.28 4.66 0.95 7 1.5 2.34 0.54 5.38 0.98 6.75 0.98 1.38 0 2.67-0.34 2.88-0.75 0.2-0.41 0.65-3.79 1-7.5l0.62-6.75h-21z"/>
		<path id="Path 12" class="s4" d="m108 259.5c0 6.57 0.22 7.47 1.75 7.24 1.3-0.19 1.88-1.49 2.27-5.1l0.51-4.85c5.63 7.82 7.87 9.81 9.23 9.96 2.14 0.24 2.24-0.08 2.24-7.25 0-7.01-0.14-7.5-2.15-7.5-1.91 0-2.16 0.58-2.25 5.23l-0.1 5.23c-6.13-8.54-8.23-10.46-9.5-10.46-1.82 0-2 0.67-2 7.5z"/>
		<path id="Path 13" class="s4" d="m82.5 252.67c-0.46 0.36-0.76 3.06-0.67 6 0.09 2.93 0.39 6.01 0.67 6.83 0.39 1.16 2.03 1.46 7.25 1.32 5.27-0.14 5.71-0.25 2-0.5l-4.75-0.32v-13c8.59-0.58 8.24-0.67 2.92-0.82-3.62-0.1-6.96 0.12-7.42 0.49z"/>
		<path id="Path 14" class="s4" d="m57.69 257.25c0.85 2.89 1.94 6.26 2.43 7.5q0.88 2.25 3.38 2.25c2.06 0 2.74-0.75 3.88-4.25 0.9-2.74 1.6-3.72 1.97-2.75 0.33 0.82 1.05 2.74 1.62 4.25 0.75 1.99 1.72 2.75 3.53 2.75 2.24 0 2.71-0.73 4.5-7 1.1-3.85 2-7.22 2-7.5 0-0.28-0.79-0.51-1.75-0.53-1.2-0.02-2.22 1.4-3.25 4.51-0.83 2.5-1.8 4.2-2.17 3.78-0.37-0.42-1.07-2.33-1.57-4.26-0.7-2.78-1.38-3.5-3.29-3.5-1.95 0-2.62 0.75-3.53 4-0.62 2.2-1.49 4-1.95 4-0.45 0-1.42-1.91-2.16-4.25-0.96-3.07-1.87-4.25-3.26-4.25-1.85 0-1.87 0.2-0.38 5.25z"/>
		<path id="Path 15" class="s5" d="m435.21 250.77c-1.66 1.25-2.08 2.23-1.5 3.51 0.72 1.62 1.05 1.53 3.56-1 1.53-1.53 2.76-3.12 2.75-3.53-0.01-0.41-0.58-0.74-1.27-0.73-0.69 0.01-2.28 0.8-3.54 1.75z"/>
		<path id="Path 16" class="s3" d="m467.56 249.25c-0.37 2.89-1.35 7.95-2.19 11.25-0.83 3.3-3.33 9.38-5.55 13.5-2.23 4.13-5.94 9.98-8.26 13-2.32 3.02-6.33 7.3-8.92 9.5-2.58 2.2-4.46 4.23-4.17 4.5 0.28 0.27 2.88-1.13 5.77-3.12 2.89-1.99 7.28-5.4 9.76-7.58 2.48-2.18 6.67-6.85 9.33-10.38 2.65-3.53 6.08-9.12 7.62-12.42 1.53-3.3 3.53-9.26 4.42-13.25 0.9-3.99 1.63-7.93 1.63-8.75 0-1.11-1.15-1.5-4.39-1.5h-4.38z"/>
		<path id="Path 17" class="s1" d="m469 237.2c-0.77 0.66-1.31 2.46-1.2 4 0.19 2.62 0.49 2.8 4.7 2.8h4.5c0-7.86-0.12-8-3.3-8-1.82 0-3.93 0.54-4.7 1.2z"/>
		<path id="Path 18" class="s6" d="m440.16 235.88c-1.07 1.58-3.69 3.66-5.81 4.63-2.67 1.22-7.99 1.99-17.35 2.53-7.43 0.43-14.85 1.21-16.5 1.73-1.65 0.52-5.48 2.2-8.5 3.74-3.03 1.54-7.98 5.32-11.02 8.39-3.03 3.08-6.94 8.3-8.69 11.6-1.74 3.3-3.87 8.7-4.73 12-0.86 3.3-1.53 9.38-1.48 13.5 0.04 4.13 0.61 9.49 1.25 11.93 0.64 2.43 1.73 4.57 2.42 4.75 0.85 0.22 1.26-1.03 1.27-3.93 0.01-2.34 0.7-7.4 1.53-11.25 0.84-3.85 3.06-9.93 4.95-13.5 1.89-3.57 6.03-9.11 9.22-12.3 3.37-3.39 8.28-7.01 11.78-8.68 3.3-1.59 9.15-3.4 13-4.03 3.85-0.64 10.15-1.82 14-2.62 4.01-0.84 8.39-2.51 10.25-3.92 1.79-1.35 4.11-4.14 5.15-6.2 1.05-2.06 2.15-5.44 2.45-7.5 0.3-2.06 0.15-3.75-0.34-3.75-0.49 0-1.77 1.29-2.85 2.88z"/>
		<path id="Path 19" class="s6" d="m449.54 225.25c-0.22 0.69-0.57 5.3-0.77 10.25-0.3 7.68-0.84 10.03-3.67 16-2.03 4.3-5.49 9.25-8.95 12.83-3.11 3.21-9.92 8.64-15.15 12.08-5.23 3.43-11.43 8.46-13.78 11.17-2.36 2.7-4.27 5.26-4.25 5.67 0.01 0.41 0.37 0.74 0.78 0.73 0.41-0.01 1.65-0.88 2.75-1.93 1.1-1.06 7.17-4.67 13.5-8.03 6.32-3.36 13.91-8.01 16.86-10.32 2.94-2.31 7.1-6.45 9.23-9.2 2.85-3.67 4.41-7.12 5.88-13 1.11-4.4 2.02-10.93 2.03-14.5 0.01-3.57-0.12-7.96-0.3-9.75-0.22-2.28-0.83-3.25-2.03-3.25-0.95 0-1.9 0.56-2.13 1.25z"/>
		<path id="Path 20" class="s4" d="m474.43 220.5c0.29 1.65 1.1 6.27 1.8 10.26 0.78 4.48 1.75 7.26 2.52 7.25 0.69-0.01 1.48-0.46 1.75-1.01 0.27-0.55-0.41-4.04-1.51-7.75-1.11-3.71-2.71-7.88-3.56-9.25l-1.54-2.5z"/>
		<path id="Path 21" class="s4" d="m454.11 215.69c-0.05 0.45 0.58 3.28 1.39 6.31 0.81 3.03 1.56 8.2 1.66 11.5 0.14 4.75 0.26 5.17 0.59 2 0.22-2.2 0.94-4.3 1.58-4.67 0.85-0.49 0.49-2.65-1.33-7.88-1.38-3.97-2.79-7.4-3.15-7.64-0.35-0.23-0.69-0.06-0.74 0.38z"/>
		<path id="Path 22" class="s2" d="m44.75 204.82c-2.06 8.62-3.63 15.72-3.5 15.77 0.14 0.04 3.55-0.18 7.58-0.5l7.34-0.59c-0.9-4.65-2.36-11.18-3.83-17.5-1.46-6.32-2.93-11.81-3.25-12.18-0.33-0.37-2.28 6.38-4.34 15z"/>
		<path id="Path 23" class="s4" d="m81.57 158.1c-0.46 0.77-0.55 4.44-0.2 8.15l0.63 6.75h16v41h-16v15l46.5-0.5v-14l-15.5-0.5v-41l15.5-0.5 0.5-14.5c-12.79 0-23.27-0.29-31.54-0.65-12.34-0.53-15.2-0.4-15.89 0.75z"/>
		<path id="Path 24" class="s4" d="m43.22 158.25c-0.56 0.69-2.15 5.53-3.55 10.75-1.39 5.22-4.17 15.57-6.16 23-2 7.43-4.95 18.45-6.56 24.5-1.6 6.05-2.93 11.34-2.93 11.75-0.01 0.41 3.36 0.75 7.48 0.75 6.96 0 7.54-0.16 8.02-2.25 0.29-1.24 2.5-10.35 4.91-20.25 2.41-9.9 4.62-17.32 4.91-16.5 0.3 0.82 1.74 6.68 3.21 13 1.47 6.32 3.47 14.65 4.44 18.5l1.75 7c11.83 0.39 15.26 0.28 15.26 0 0-0.28-4.11-15.69-9.13-34.25-5.02-18.56-9.29-34.54-9.5-35.5-0.3-1.4-1.44-1.75-5.76-1.75-3.1 0-5.81 0.53-6.39 1.25z"/>
		<path id="Path 25" class="s3" d="m399.25 156.03l-3.25 2.97c3.19 7.36 5.82 11.75 7.89 14.5 2.08 2.75 8.24 8.37 13.69 12.49 5.46 4.11 11.72 9.31 13.92 11.55 2.2 2.23 5.21 6.06 6.68 8.51 1.47 2.45 3.43 7.38 4.35 10.95 1.23 4.78 1.45 7.75 0.82 11.23-0.47 2.6-0.51 4.74-0.1 4.75 0.41 0.01 0.49 1.71 0.17 3.77-0.31 2.06-1.66 5.66-3 8-2.09 3.67-2.19 4.22-0.7 4 0.94-0.14 2.72-2.05 3.94-4.25 1.23-2.2 2.77-6.93 3.42-10.5 0.65-3.57 1.58-7.29 2.05-8.25 0.48-0.96 1.43-1.76 2.12-1.77 0.69-0.02 1.59 1.45 2.01 3.25 0.42 1.8 0.76 6.2 0.76 9.77-0.01 3.57-0.69 9.09-1.51 12.25-0.83 3.16-1.52 6.31-1.53 7q0 1.22 0.88 0.25c0.49-0.55 1.85-3.59 3.02-6.75 1.53-4.16 2.12-8.03 2.1-14-0.01-4.54-0.68-10.84-1.5-14-0.81-3.16-1.27-6.09-1.01-6.5 0.26-0.41-0.94-3-2.66-5.75-1.71-2.75-5.41-7.42-8.21-10.39-2.81-2.96-10.28-9.3-16.6-14.09-6.32-4.78-12.96-10.34-14.75-12.36-1.79-2.01-3.93-5.01-4.75-6.66-0.82-1.65-1.88-5.25-2.35-8-0.47-2.75-1.26-4.99-1.75-4.97-0.5 0.02-2.36 1.37-4.15 3z"/>
		<path id="Path 26" class="s4" d="m470 138.74c4.13 0.19 10.65 0.19 14.5 0 3.85-0.19 0.48-0.34-7.5-0.34-7.98 0-11.13 0.15-7 0.34z"/>
		<path id="Path 27" class="s3" d="m420.32 138.39c-2.84 1.31-6.08 3.67-7.19 5.24-1.1 1.58-2.38 4.31-2.82 6.07-0.65 2.56-0.41 3.62 1.19 5.29 1.1 1.14 2.45 2.06 3 2.04 0.55-0.02 1.19-2.07 1.42-4.57 0.23-2.49 1.25-5.71 2.26-7.15 1.02-1.43 3.3-3.44 5.08-4.46 2.82-1.62 5.53-1.86 20.99-1.85 9.76 0 18.43-0.22 19.25-0.5 0.82-0.27 1.5-0.95 1.5-1.5 0-0.63-7.24-1-19.75-0.99-18.66 0.01-20.04 0.14-24.93 2.38z"/>
		<path id="Path 28" class="s1" d="m465.1 135.41l-0.1 2.59c23.33-0.1 28.66-0.47 27.5-0.94-1.1-0.44-6.05-1.32-11-1.95-4.95-0.62-10.64-1.39-12.65-1.71-3.38-0.53-3.65-0.39-3.75 2.01z"/>
		<path id="Path 29" class="s1" d="m110 139.5v17.5c-6.59 0.5-2.31 0.73 5.25 0.83l13.75 0.17-0.5 14.5-15.5 0.5v41l15.5 0.5v14l-19 1c0 19.59 0.32 22.5 1.25 22.5 0.69 0 2.94 2.35 5 5.23l3.75 5.23c0.46-9.71 0.79-10.46 2.5-10.46 1.82 0 2 0.67 2 7.5 0 7.17-0.1 7.49-2.24 7.25-1.34-0.15-3.64-2.16-5.75-5.02l-3.51-4.77c-0.49 6.62-1.06 8.99-1.58 9.54-0.52 0.55-0.95 6.29-0.94 12.75l0.02 11.75h229c-2.36-7.42-3.02-13.11-3.01-17.75 0.01-5.54 0.68-10.3 2.04-14.5 1.12-3.44 1.79-6.47 1.5-6.75-0.3-0.28-1.67 0.63-3.05 2-1.61 1.61-2.82 2.14-3.4 1.5-0.49-0.55-2.23-4.82-3.87-9.5-1.64-4.68-3.79-12.32-4.79-17-1.33-6.25-1.82-12.99-1.84-25.5-0.03-14.67 0.28-18.16 2.26-25.5 1.27-4.68 4.21-12.55 6.54-17.5 2.33-4.95 6.2-11.93 8.6-15.5 2.4-3.57 8-10.22 12.44-14.77l8.08-8.28-250.5 0.05z"/>
		<path id="Path 30" class="s3" d="m145.55 261c-0.3 0.55-0.33 1.45-0.05 2 0.27 0.55 2.3 1 4.5 1 2.2 0 4 0.45 4 1 0 0.55 0.68 1 1.5 1q1.5 0 1.5-3c0-2.97-0.06-3-5.45-3-3 0-5.7 0.45-6 1zm0-6c-0.3 0.55-0.33 1.45-0.05 2 0.27 0.55 2.07 1 4 1 2.83 0 3.5-0.38 3.5-2 0-1.61-0.67-2-3.45-2-1.9 0-3.7 0.45-4 1z"/>
		<path id="Path 31" class="s4" d="m157 259.5c0 6.58 0.22 7.47 1.75 7.24 0.96-0.14 1.85-1.16 1.98-2.25 0.13-1.09 0.92-2.55 1.75-3.24 1.28-1.05 1.88-0.69 3.77 2.24 1.24 1.92 3.04 3.49 4 3.5 0.96 0 1.75-0.22 1.75-0.49 0-0.27-1.35-2.52-3-5-2.69-4.04-2.85-4.68-1.53-6.25 0.82-0.96 1.49-2.09 1.5-2.5 0.02-0.41-0.76-0.74-1.72-0.74-0.96 0.01-2.75 1.25-3.96 2.75l-2.22 2.74c-0.06-4.82-0.56-5.5-2.07-5.5-1.82 0-2 0.67-2 7.5zm-15 0v7.5c10.67 0 12-0.33 12-1.5 0-1.06-1.25-1.57-4.25-1.75-3-0.18-4.25-0.69-4.25-1.75 0-1.06 1.25-1.57 4.25-1.75 2.34-0.14 4.25-0.7 4.25-1.25 0-0.55-1.91-1.11-4.25-1.25-3-0.18-4.25-0.69-4.25-1.75 0-1.06 1.25-1.57 4.25-1.75 2.34-0.14 4.25-0.7 4.25-1.25 0-0.56-2.67-1-6-1h-6zm-16-6.5c0 0.55 1.01 1.11 2.25 1.25 2.04 0.23 2.27 0.85 2.5 6.5 0.22 5.5 0.49 6.25 2.25 6.25 1.76 0 2.03-0.75 2.25-6.25 0.23-5.65 0.46-6.27 2.5-6.5 1.24-0.14 2.25-0.7 2.25-1.25 0-0.57-3-1-7-1-4 0-7 0.43-7 1zm142 4.5c0 6.27 0.09 6.5 2.5 6.5 2.41 0 2.5-0.23 2.5-6.5 0-6.27-0.09-6.5-2.5-6.5-2.41 0-2.5 0.23-2.5 6.5zm-18 0c0 6.27 0.09 6.5 2.5 6.5 2 0 2.5-0.5 2.5-2.5 0-2.11 0.47-2.5 3-2.5 2.53 0 3 0.39 3 2.5 0 2 0.5 2.5 2.5 2.5 2.41 0 2.5-0.23 2.5-6.5 0-6.27-0.09-6.5-2.5-6.5-2 0-2.5 0.5-2.5 2.5 0 2.11-0.47 2.5-3 2.5-2.53 0-3-0.39-3-2.5 0-2-0.5-2.5-2.5-2.5-2.41 0-2.5 0.23-2.5 6.5zm-14.53-4.67c-1.04 1.04-1.77 3.09-1.68 4.75 0.08 1.61 0.95 3.7 1.93 4.64 1.01 0.99 3.36 1.74 5.46 1.75 2.19 0.02 4.39-0.68 5.44-1.72 1.67-1.67 1.64-1.76-0.68-2.03-1.34-0.16-3.05 0.29-3.8 1-1.11 1.05-1.61 0.92-2.77-0.72-0.77-1.1-1.4-2.45-1.4-3 0-0.55 0.65-1.9 1.45-3 1.17-1.62 1.69-1.76 2.76-0.73 0.73 0.69 1.66 1.26 2.07 1.25 0.41-0.01 0.75-0.92 0.75-2.02 0-1.65-0.67-2-3.85-2-2.4 0-4.54 0.69-5.68 1.83zm-8.47 4.67c0 6.27 0.09 6.5 2.5 6.5 2.41 0 2.5-0.23 2.5-6.5 0-6.27-0.09-6.5-2.5-6.5-2.41 0-2.5 0.23-2.5 6.5zm-15 0v6.5c9.33 0 12-0.44 12-1 0-0.55-1.57-1-3.5-1-2.44 0-3.5-0.45-3.5-1.5q0-1.5 3-1.5 3 0 3-1.5 0-1.5-3-1.5-3 0-3-1.5 0-1.5 3-1.5c1.65 0 3.22-0.45 3.5-1 0.31-0.61-1.83-1-5.5-1h-6zm-17-5.5c0 0.55 1.01 3.49 2.25 6.53 1.97 4.85 2.59 5.53 5 5.5 2.3-0.02 3.01-0.72 4.36-4.28 0.89-2.34 1.79-4.81 2-5.5 0.21-0.69-0.17-1.27-0.86-1.29-0.69-0.02-1.93 1.35-2.75 3.04-0.82 1.69-1.84 3.06-2.25 3.04-0.41-0.02-1.31-1.85-2-4.06-0.98-3.15-1.74-4.02-3.5-4-1.24 0.01-2.25 0.47-2.25 1.02zm-14.39-5.75c-0.32 1.24-0.58 6.75-0.58 12.25 0 5.5 0.4 10.68 0.9 11.5 0.56 0.94 1.49 1.22 2.48 0.75 1.33-0.63 1.59-2.86 1.59-13.75 0-12.12-0.13-13-1.9-13-1.14 0-2.14 0.91-2.49 2.25zm-44.61-80.75v7.5h16v56h15v-56h16v-15h-47zm108.54-7.87c-0.48 0.39-0.8 16.6-0.71 36.04l0.17 35.33 15.5-0.5c0.4-21.25 0.9-26.5 1.5-26.5 0.55 0 3.65 4.39 6.89 9.75 3.25 5.36 6.96 11.45 8.25 13.52l2.36 3.76c14.36-0.03 16.41-0.35 16.15-1.28-0.19-0.69-4.77-8.45-10.18-17.25-5.4-8.8-9.82-16.45-9.82-17 0.01-0.55 4.32-7.97 9.59-16.5 5.27-8.53 9.85-16.29 10.17-17.25 0.53-1.58-0.26-1.75-7.91-1.75h-8.5c-10.32 17.44-14.26 23.85-15.41 25.5l-2.09 3-1-29c-10.92-0.45-14.48-0.26-14.96 0.13zm-31.69 0.32c-14.83 0.49-16.88 0.77-18.77 2.55-1.17 1.1-2.58 3.13-3.14 4.5-0.62 1.53-0.9 13.07-0.72 29.83l0.28 27.33 7.5 6.84h39v-15h-32v-13h32v-15h-32v-13h32v-16c-5.81 0.31-14.99 0.65-24.15 0.95z"/>
		<path id="Path 32" class="s6" d="m410.55 114c-0.3 0.55-0.39 1.34-0.19 1.75 0.2 0.41 5.49 2.69 11.75 5.05 8.98 3.39 12.45 5.28 16.39 8.91 4.66 4.3 4.8 4.55 2 3.76-1.65-0.47-4.58-0.93-6.5-1.02-1.93-0.09-4.06-0.23-4.75-0.3-0.69-0.08-1.93-1.5-2.75-3.15-1.32-2.63-2.02-3-5.75-2.99-2.34 0.01-6.73-0.46-9.75-1.04-3.02-0.58-6.96-2.16-8.75-3.51-1.93-1.46-3.24-1.95-3.22-1.21 0.02 0.69 0.92 2.71 2 4.5l1.97 3.25c-4.48 6.59-6.28 10.3-6.89 12.5-0.6 2.2-1.09 6.47-1.09 9.5 0.01 3.03 0.43 6.18 0.95 7 0.79 1.26 1.37 1.07 3.73-1.23 1.54-1.5 3.14-2.74 3.55-2.75 0.41-0.01 1.2 2.23 1.75 4.98 0.55 2.75 1.67 6.35 2.5 8 0.82 1.65 2.96 4.65 4.75 6.66 1.79 2.02 8.42 7.57 14.75 12.34 6.32 4.77 14.35 11.78 17.84 15.58 3.68 4.02 7.76 9.86 9.73 13.92 1.86 3.85 4.06 10.15 4.89 14 0.83 3.85 1.51 9.36 1.52 12.25 0.01 2.89-0.6 8.51-1.36 12.5-0.76 3.99-2.69 10.4-4.3 14.25-1.6 3.85-4.75 9.7-6.99 13-2.25 3.3-7.88 10.05-12.51 15-4.64 4.95-9.2 10.13-10.14 11.5-0.93 1.37-1.69 2.84-1.69 3.25 0.01 0.41 2.82-1.17 6.26-3.52 3.44-2.35 9.64-7.64 13.79-11.75 4.14-4.12 9.16-9.96 11.16-12.98 1.99-3.02 4.99-8.43 6.65-12 1.67-3.57 3.73-9.99 4.59-14.25 0.86-4.26 1.55-9.89 1.54-12.5-0.01-2.61 0.53-5.31 1.2-6 0.67-0.69 2.7-1.25 4.52-1.25h3.3c-0.99-7.36-1.87-11.53-2.59-14-0.73-2.47-1.12-4.72-0.88-5 0.25-0.28 1.57 1.97 2.94 5 1.37 3.03 3.24 8.88 4.16 13 1.22 5.55 1.52 10.36 1.14 18.5-0.4 8.75-1.15 12.94-3.67 20.5-1.99 5.96-4.92 12.07-7.88 16.4-2.6 3.8-6.4 8.3-8.46 10-3.28 2.72-3.65 3.46-3 6.01l0.74 2.92c8.33-9.17 12.84-14.98 15.4-18.83 2.56-3.85 6.07-10.38 7.79-14.5 1.72-4.13 3.67-10.2 4.33-13.5 0.72-3.63 1.01-10.74 0.73-18-0.39-9.89-0.96-13.32-3.24-19.5-1.53-4.13-4.36-9.97-6.3-13-1.93-3.03-5.13-7.43-7.11-9.79-1.98-2.35-6.3-6.47-9.6-9.15-3.3-2.67-12.52-9.01-20.5-14.07-7.98-5.07-16.22-10.85-18.33-12.85-2.11-2-4.47-4.88-5.25-6.39-0.78-1.51-1.98-2.74-2.67-2.72-0.69 0.02-2.15-0.9-3.25-2.04-1.6-1.67-1.84-2.73-1.19-5.29 0.44-1.76 1.79-4.52 3-6.14 1.2-1.62 4.44-3.97 7.19-5.24 4.68-2.15 6.26-2.3 24.75-2.31 16.88-0.01 19.75-0.23 19.75-1.51 0-0.82-0.34-1.5-0.75-1.51-0.41 0-3.68-0.47-7.25-1.04-3.58-0.56-7.18-1.22-8-1.47-0.83-0.24-3.19-2.7-5.25-5.46-2.06-2.76-5.66-6.13-8-7.48-2.43-1.4-7.25-2.9-11.25-3.48-3.85-0.56-8.44-1.03-10.2-1.04-1.76-0.01-3.45 0.43-3.75 0.98z"/>
		<path id="Path 33" class="s1" d="m401.37 110.1c0.16 0.77 2.05 2.38 4.21 3.58 3.62 2.01 4.01 2.05 5.07 0.5 0.99-1.44 0.62-1.87-2.5-3-2.01-0.72-4.42-1.58-5.35-1.9q-1.7-0.58-1.43 0.82z"/>
		<path id="Path 34" class="s7" d="m409.5 100.05c-3.3 0.5-9.6 2.11-14 3.56-4.4 1.45-11.15 4.21-15 6.15-3.85 1.93-9.7 5.33-13 7.55-3.3 2.22-9.51 7.45-13.81 11.61-4.3 4.17-10.13 10.96-12.96 15.08-2.82 4.13-7.04 11.55-9.36 16.5-2.33 4.95-5.26 12.82-6.53 17.5-1.98 7.34-2.29 10.83-2.26 25.5 0.02 12.51 0.51 19.25 1.84 25.5 1 4.68 3.15 12.32 4.79 17 1.64 4.68 3.38 8.95 3.87 9.5 0.58 0.64 1.79 0.11 3.4-1.5 1.38-1.37 2.75-2.28 3.05-2 0.29 0.28-0.43 3.43-1.6 7-1.75 5.35-2.06 8.27-1.74 16.5 0.32 8.35 0.85 10.99 3.18 16l2.8 6c3.39-9.3 5.34-13.57 6.51-15.5 1.18-1.93 4.51-5.75 7.41-8.5 2.91-2.75 5.44-4.55 5.64-4 0.19 0.55-0.63 3.48-1.82 6.5-1.52 3.83-2.33 8.54-2.67 15.5-0.29 5.88-0.01 12.27 0.68 15.5 0.64 3.02 2.68 8.65 4.53 12.5 2 4.17 5.54 9.23 8.74 12.5 2.96 3.02 6.59 6.18 8.08 7 1.49 0.82 2.91 1.27 3.16 1 0.25-0.27 0.04-2.3-0.47-4.5-0.5-2.2-0.92-6.81-0.94-10.25-0.01-3.44 0.67-8.61 1.5-11.5 0.84-2.89 2.75-7.47 4.25-10.18 1.5-2.71 3.18-5.09 3.73-5.27 0.55-0.19 1.38 1.8 1.85 4.43 0.47 2.62 1.65 6.34 2.63 8.27 0.98 1.93 2.5 4.06 3.4 4.75 1.38 1.06 1.78 0.84 2.69-1.5 0.59-1.51 2.17-4.21 3.5-6 1.34-1.79 4.45-4.6 6.93-6.25 2.48-1.65 4.95-3 5.5-3 0.55 0 0.03 2.59-1.15 5.75-1.38 3.69-2.18 8.26-2.25 12.75-0.06 4.42 0.54 8.75 1.65 11.75 0.96 2.61 2.31 4.73 3 4.72 0.69-0.02 2.6-2.38 4.25-5.25 2.19-3.79 4.82-6.43 9.71-9.71 3.69-2.48 10.42-6.53 14.96-9.01 4.53-2.48 10.51-6.34 13.28-8.58 2.78-2.24 7.17-7.19 9.77-11 2.99-4.4 5.85-10.38 7.84-16.42 1.94-5.89 3.33-12.54 3.67-17.5 0.3-4.4 0.26-10.59-0.09-13.75-0.57-5.11-0.86-5.69-2.64-5.25-1.63 0.41-2 1.33-2 5 0 2.48-0.73 7.76-1.62 11.75-0.89 3.99-3.13 10.4-4.98 14.25-1.85 3.85-5.77 9.93-8.71 13.5-2.94 3.57-7.33 8.13-9.77 10.12-2.43 2-8.92 6.43-14.42 9.85-5.5 3.42-10.8 6.97-11.78 7.88-0.98 0.91-1.77 1.2-1.76 0.65 0.01-0.55 0.79-2.12 1.72-3.5 0.94-1.37 5.5-6.55 10.14-11.5 4.63-4.95 10.26-11.7 12.51-15 2.24-3.3 5.39-9.15 6.99-13 1.61-3.85 3.54-10.26 4.3-14.25 0.76-3.99 1.37-9.61 1.37-12.5-0.01-2.89-0.24-6.26-0.5-7.5-0.27-1.24-0.83-2.26-1.24-2.26-0.41-0.01-1.09 2.92-1.5 6.5-0.41 3.58-1.72 9.1-2.9 12.26-1.18 3.16-4.5 8.9-7.38 12.75-2.87 3.85-7.64 8.89-10.6 11.2-2.95 2.31-10.55 6.96-16.87 10.32-6.32 3.36-12.4 6.97-13.5 8.03-1.1 1.05-2.34 1.92-2.75 1.93-0.41 0.01-0.77-0.32-0.78-0.73-0.02-0.41 1.89-2.97 4.25-5.67 2.35-2.71 8.55-7.74 13.78-11.17 5.23-3.44 12.04-8.87 15.15-12.08 3.53-3.65 6.86-8.45 8.91-12.83 2.04-4.39 3.46-9.24 3.79-13 0.33-3.66 0.17-5.76-0.41-5.38-0.52 0.34-1.48 2.59-2.14 5-0.66 2.41-2.68 6.59-4.5 9.3-1.81 2.71-5.1 6.36-7.3 8.13-2.2 1.76-5.57 4-7.5 4.97-1.93 0.97-8.9 3.53-15.5 5.69-7.28 2.38-14.13 5.37-17.42 7.61-2.98 2.02-7.14 5.7-9.24 8.18-2.1 2.48-5.14 6.98-6.77 10-1.62 3.02-3.65 8.2-4.51 11.5-0.86 3.3-1.56 7.8-1.55 10 0.02 2.73-0.3 3.68-1.01 3-0.56-0.55-1.93-4.37-3.02-8.5-1.1-4.12-2-10.65-1.99-14.5 0-3.85 0.71-9.7 1.57-13 0.86-3.3 2.99-8.7 4.73-12 1.75-3.3 5.66-8.52 8.69-11.6 3.04-3.07 8-6.85 11.02-8.39 3.02-1.54 6.85-3.22 8.5-3.74 1.65-0.52 9.07-1.3 16.5-1.73 9.91-0.57 14.54-1.28 17.43-2.66 2.16-1.03 4.93-3.45 6.16-5.38 1.23-1.93 2.53-5.3 2.9-7.5 0.43-2.55 0.08-6.36-0.98-10.5-0.91-3.57-2.86-8.5-4.33-10.95-1.47-2.45-4.48-6.28-6.68-8.51-2.2-2.24-8.46-7.44-13.92-11.55-5.45-4.12-11.61-9.74-13.69-12.49-2.07-2.75-4.76-7.25-5.97-10-1.22-2.75-2.44-7.7-2.71-11-0.28-3.3 0.05-8.25 0.73-11 0.68-2.75 2.54-6.91 4.15-9.25l2.91-4.25c-3.05-5.04-3.95-7.06-3.97-7.75-0.02-0.74 1.29-0.25 3.22 1.21 1.79 1.35 5.73 2.93 8.75 3.51 3.02 0.58 7.41 1.05 9.75 1.04 3.73-0.01 4.43 0.36 5.75 2.99 0.82 1.65 1.84 3.05 2.25 3.11 0.41 0.06 3.45 0.26 6.75 0.45l6 0.34c-7.03-6.95-10.42-8.79-18-11.54-5.5-1.99-12.48-4.87-15.5-6.38-3.02-1.52-6.62-3.69-8-4.83-1.7-1.42-2.02-2.09-1-2.09 0.82-0.01 3.52 0.9 6 2.02 2.48 1.12 9.45 2.7 15.5 3.51 7.96 1.06 12.18 2.15 15.25 3.94 2.34 1.36 5.86 4.61 7.83 7.22 1.97 2.61 4.1 5.06 4.75 5.44 0.64 0.38 9.94 1.84 20.67 3.24 10.73 1.41 20.85 2.81 22.5 3.12 1.65 0.31 2.63 0.88 2.17 1.26-0.46 0.38-16.25 0.91-35.08 1.19l-34.25 0.5c-6.1 4.57-7.67 6.77-8.32 9.25-0.64 2.45-0.64 5.05 0 7.5 0.54 2.06 2.89 5.81 5.23 8.34 2.34 2.52 10.77 8.7 18.75 13.74 7.98 5.04 17.43 11.5 21 14.36 3.57 2.86 8.12 7.14 10.1 9.51 1.98 2.36 5.18 6.78 7.11 9.8 1.94 3.03 4.77 8.88 6.3 13 2.28 6.18 2.85 9.61 3.24 19.5 0.28 7.26-0.01 14.37-0.73 18-0.66 3.3-2.61 9.38-4.33 13.5-1.72 4.13-5.28 10.76-7.91 14.75-2.63 3.99-7.59 10.16-11.03 13.71-3.44 3.55-5.69 6.47-5 6.5 0.69 0.02 5.19-1.66 10-3.73 4.81-2.07 12.12-6 16.25-8.73 4.12-2.72 11.13-8.56 15.58-12.98 4.44-4.41 10.77-12.07 14.06-17.02 3.29-4.95 7.38-12.6 9.09-17 1.71-4.4 4.06-11.37 5.21-15.5 1.15-4.12 2.62-12.9 3.26-19.5 0.86-8.94 0.87-14.93 0.04-23.5-0.66-6.8-2.21-14.97-3.79-20-1.48-4.68-4.26-11.65-6.18-15.5-1.93-3.85-5.57-9.93-8.09-13.5-2.52-3.57-7.08-9.16-10.13-12.4-3.05-3.25-9.15-8.59-13.55-11.87-4.4-3.28-11.15-7.55-15-9.48-3.85-1.94-8.8-4.18-11-4.99-2.2-0.81-7.15-2.36-11-3.44-5.19-1.46-11.01-2.06-22.5-2.34-8.52-0.2-18.2 0.06-21.5 0.57z"/>
		<path id="Path 35" class="s3" d="m433.63 230.85c-2.13 1.2-3.87 1.25-10.35 0.29-4.28-0.64-12.05-1.16-17.28-1.16-6.35 0-12.16 0.68-17.5 2.06-4.4 1.13-10.93 3.6-14.5 5.5-3.57 1.89-8.95 5.58-11.94 8.2-2.99 2.62-7.16 7.46-9.27 10.76-2.11 3.3-3.83 6.34-3.82 6.75 0.02 0.41 2.84-1.74 6.28-4.79 3.44-3.05 9.63-7.29 13.75-9.42 4.13-2.14 9.98-4.8 13-5.93 3.02-1.12 8.43-2.75 12-3.61 3.57-0.86 12.57-1.82 20-2.12 7.43-0.3 14.85-0.95 16.5-1.43 1.65-0.48 3.82-1.68 4.83-2.66 1-0.99 1.61-2.26 1.35-2.84-0.31-0.68-1.37-0.54-3.05 0.4z"/>
		<path id="Path 36" class="s6" d="m397 215.45c-3.57 0.77-8.52 2.12-11 3.02-2.48 0.89-7.43 3.23-11 5.2-3.57 1.97-8.14 4.99-10.15 6.71-2 1.71-5.43 5.37-7.62 8.12-2.18 2.75-5.11 7.25-6.49 10-1.39 2.75-3.27 7.48-4.18 10.5-0.91 3.02-1.52 6.85-1.36 8.5 0.27 2.7 0.7 2.19 4.23-5 2.81-5.74 5.78-9.84 10.5-14.5 3.84-3.8 9.48-8.04 13.57-10.2 3.85-2.04 10.6-4.63 15-5.76 5.34-1.38 11.15-2.06 17.5-2.06 5.23 0 12.88 0.53 17 1.17 6.17 0.95 8.03 0.91 10.5-0.25 2.18-1.03 3.09-2.23 3.34-4.41 0.26-2.32-0.35-3.6-2.75-5.74-1.7-1.51-5.45-3.45-8.34-4.3-2.89-0.86-9.07-1.74-13.75-1.97-5.13-0.26-11.08 0.13-15 0.97z"/>
	</g>
</svg>